#!OML:ASF F:\VICON\USERDATA\INSTALL\rory3\rory3.ASF
:FULLY-SPECIFIED
:DEGREES
28
root -0.367898036197242 17.713626887278064 0.10570272248585155 4.4014788538353775 1.7352228448555413 -0.13294336101286275
lfemur 2.884175772140809 0.4914667296307375 -25.838160085970664
ltibia 38.887152701390036
lfoot -8.59962238059821 -2.1424027712384355
ltoes -25.72418574030204
rfemur -48.35510848518533 -3.7404526525961157 23.170549264508566
rtibia 97.78558938146578
rfoot 2.215171238748696 -3.4624083176839195
rtoes 4.130074796556378
lowerback 16.265885180134752 -0.4815671518311908 -3.1577874912437727
upperback -1.0503376925775476 -1.1116183614027015 1.3059157796251095
thorax -10.215319778980614 -0.3001829754456512 4.197724384811235
lowerneck -22.10959640916651 -2.953501930563885 -1.4161878982410316
upperneck 12.98286038105385 -4.243988231631235 3.257308894257597
head 7.65465093813151 -1.7085933020042081 0.8486034607403832
lclavicle -1.8644588394135353e-15 1.6852782777119302e-15
lhumerus -34.03017157675296 -19.406674554527285 97.4227706184028
lradius 119.64038297337908
lwrist 37.05433171424717
lhand -24.776306785501973 1.4352645078767625
lfingers 7.12502
lthumb 1.7275188149250686 31.387932398571248
rclavicle -1.8644588394135353e-15 1.6852782777119302e-15
rhumerus -60.9880552891578 7.316288225734317 -100.27751288136474
rradius 107.76896305184724
rwrist -13.15719816225801
rhand -15.507127835620489 39.58321797676573
rfingers 7.12502
rthumb 10.675210713936568 9.52665261225968
29
root -0.33913619472955125 17.947365377009156 0.800981783443488 4.8148232547594025 0.8846924581594686 -0.44817253201714946
lfemur 6.920434749828049 0.4143154047187146 -25.448150994048866
ltibia 35.2490845322978
lfoot -1.797192127428607 -4.728794449650885
ltoes -28.17970033043921
rfemur -48.797001931478725 -2.008681139166541 23.881151478803872
rtibia 88.53636646316325
rfoot 1.5515451104380875 -2.5813810189692536
rtoes -0.06990660387323766
lowerback 15.836814100568057 -0.6722703372086827 -2.8611148594159825
upperback -1.3076724644549882 -1.2778417252413936 1.688777667805519
thorax -10.139946923419606 -0.38137311885293956 4.48563418496132
lowerneck -22.07790584366294 -2.6649984268326383 -1.4583880155588065
upperneck 13.363063712097341 -3.7893217713952625 2.988290067234009
head 7.736929004884283 -1.5235757725628511 0.7927281595457195
lclavicle -1.5783167287870348e-15 1.8928387860580175e-15
lhumerus -33.711831906093714 -18.927414305548965 96.7983516592255
lradius 122.32413621128686
lwrist 37.71769117839043
lhand -24.415185270088777 1.6526599207480435
lfingers 7.12502
lthumb 2.0762574435748498 31.59427715828153
rclavicle -1.5783167287870348e-15 1.8928387860580175e-15
rhumerus -62.44551211804679 7.247592660434262 -99.58743463556623
rradius 108.86078891462063
rwrist -12.906941103763684
rhand -15.326957383582746 39.673188467681676
rfingers 7.12502
rthumb 10.849038687272614 9.562866453943036
30
root -0.2736521198713846 18.15607630573455 2.03612353839695 5.060223866608534 -0.12897513068523947 -0.80092535009225
lfemur 10.302780685005542 0.17469115233971572 -25.524714416024814
ltibia 30.858564133847167
lfoot 6.051410016980963 -7.715281655399251
ltoes -27.71345412706988
rfemur -48.384626126032146 -0.4847998092699177 24.462059980901145
rtibia 76.36074556417078
rfoot 0.7886486876932457 -1.6641176402613969
rtoes -4.973420246244492
lowerback 15.32599457915393 -0.8413535176856284 -2.6061923409824033
upperback -1.5605487964043088 -1.419166400007665 2.0102047462944714
thorax -10.044037349965782 -0.4523867418847466 4.590575994323797
lowerneck -21.99945435510015 -2.473419710640819 -1.570845181945943
upperneck 13.579877428073567 -3.462575036880575 2.76765516492086
head 7.780417360497728 -1.3958415608482562 0.7503790579038818
lclavicle -1.9432546932686366e-15 1.62813010941699e-15
lhumerus -34.222113119189075 -18.857591296357104 96.04003468995346
lradius 124.66439851330286
lwrist 37.569569374589065
lhand -23.86293359607132 1.4234453988723912
lfingers 7.12502
lthumb 2.6095703573747535 31.35606539051748
rclavicle -1.9432546932686366e-15 1.62813010941699e-15
rhumerus -63.845091533923345 6.664971582103565 -98.78235789879979
rradius 109.83515946459629
rwrist -12.449531856734305
rhand -15.495611907985124 39.67083900712723
rfingers 7.12502
rthumb 10.68622621685414 9.593781064608995
31
root -0.22557038070569552 18.334465520332014 2.688043688249758 5.336042195153121 -0.9952291308159807 -1.0949330640576804
lfemur 11.799016340256822 -0.8563619079122317 -25.62268664617699
ltibia 27.992974695665712
lfoot 12.610403682721318 -10.358757828042108
ltoes -25.626819282931645
rfemur -47.75067414619753 0.6123202062300506 24.961563045493968
rtibia 64.74110663854776
rfoot 0.41879204562599526 -0.7934263765815883
rtoes -8.818115905557415
lowerback 14.870888524126594 -1.0452633596763912 -2.3147206433884158
upperback -1.8180032073934858 -1.6099233885465178 2.2390628949187055
thorax -9.991760361034201 -0.5482839116739787 4.52078183864138
lowerneck -21.87520388385547 -2.3785356004905815 -1.691632504693681
upperneck 13.819098511690207 -3.2764363898845885 2.5644816428495103
head 7.832082902649922 -1.3304384802897657 0.7083268126377252
lclavicle -2.6910806903676267e-15 1.0857101816823473e-15
lhumerus -35.205533461974255 -19.049361663872617 95.27864828705277
lradius 125.01831902800653
lwrist 36.611202589666796
lhand -23.549107495990818 1.4233620676207055
lfingers 7.12502
lthumb 2.912659500406116 31.354566401377184
rclavicle -2.6910806903676267e-15 1.0857101816823473e-15
rhumerus -65.08767517457196 5.7176288379345435 -97.96584315395162
rradius 110.5913719715155
rwrist -12.011727368141315
rhand -15.54512053435565 39.763860646818614
rfingers 7.12502
rthumb 10.638301005375922 9.74046982621448
